<svg viewBox="-257.2715536780391 -262.1285196306952 514.5431073560782 524.2570392613904" xmlns="http://www.w3.org/2000/svg"><polygon points="-125.46472073930428,-146.78311118075035 -106.3430728243004,-204.6141356659376 7.230187541071764,-207.1104020054316" style="fill:none; stroke:black; stroke-width:2.00"/><polygon points="-125.46472073930428,-146.78311118075035 -214.3929613983659,-84.81991942774756 -106.3430728243004,-204.6141356659376" style="fill:none; stroke:black; stroke-width:2.00"/><polygon points="-125.46472073930428,-146.78311118075035 -30.62756591405231,-88.8589632100212 7.230187541071764,-207.1104020054316" style="fill:none; stroke:black; stroke-width:2.00"/><polygon points="-125.46472073930428,-146.78311118075035 -214.3929613983659,-84.81991942774756 -167.598204652405,-13.279288476385602" style="fill:none; stroke:black; stroke-width:2.00"/><polygon points="-125.46472073930428,-146.78311118075035 -30.62756591405231,-88.8589632100212 -167.598204652405,-13.279288476385602" style="fill:none; stroke:black; stroke-width:2.00"/><polygon points="37.545843121791485,-218.44043302557932 -106.3430728243004,-204.6141356659376 7.230187541071764,-207.1104020054316" style="fill:none; stroke:black; stroke-width:2.00"/><polygon points="37.545843121791485,-218.44043302557932 153.13782957026137,-169.639838855495 7.230187541071764,-207.1104020054316" style="fill:none; stroke:black; stroke-width:2.00"/><polygon points="-37.545843121791485,218.44043302557932 30.627565914052227,165.60079507322138 106.3430728243004,204.6141356659376" style="fill:none; stroke:black; stroke-width:2.00"/><polygon points="-37.545843121791485,218.44043302557932 -153.13782957026137,169.639838855495 -129.74045119728095,143.9854909117408" style="fill:none; stroke:black; stroke-width:2.00"/><polygon points="-37.545843121791485,218.44043302557932 30.627565914052227,165.60079507322138 -129.74045119728095,143.9854909117408" style="fill:none; stroke:black; stroke-width:2.00"/><polygon points="104.70988911608654,-115.75888146279874 -30.62756591405231,-88.8589632100212 7.230187541071764,-207.1104020054316" style="fill:none; stroke:black; stroke-width:2.00"/><polygon points="104.70988911608654,-115.75888146279874 153.13782957026137,-169.639838855495 7.230187541071764,-207.1104020054316" style="fill:none; stroke:black; stroke-width:2.00"/><polygon points="104.70988911608654,-115.75888146279874 91.88269774215689,21.695008334056844 205.45595810752906,-28.230318455824516" style="fill:none; stroke:black; stroke-width:2.00"/><polygon points="104.70988911608654,-115.75888146279874 -30.62756591405231,-88.8589632100212 91.88269774215689,21.695008334056844" style="fill:none; stroke:black; stroke-width:2.00"/><polygon points="104.70988911608654,-115.75888146279874 153.13782957026137,-169.639838855495 205.45595810752906,-28.230318455824516" style="fill:none; stroke:black; stroke-width:2.00"/><polygon points="159.04674373645182,109.96168234841264 30.627565914052227,165.60079507322138 106.3430728243004,204.6141356659376" style="fill:none; stroke:black; stroke-width:2.00"/><polygon points="159.04674373645182,109.96168234841264 214.3929613983659,84.81991942774756 106.3430728243004,204.6141356659376" style="fill:none; stroke:black; stroke-width:2.00"/><polygon points="159.04674373645182,109.96168234841264 91.88269774215689,21.695008334056844 205.45595810752906,-28.230318455824516" style="fill:none; stroke:black; stroke-width:2.00"/><polygon points="159.04674373645182,109.96168234841264 30.627565914052227,165.60079507322138 91.88269774215689,21.695008334056844" style="fill:none; stroke:black; stroke-width:2.00"/><polygon points="159.04674373645182,109.96168234841264 214.3929613983659,84.81991942774756 205.45595810752906,-28.230318455824516" style="fill:none; stroke:black; stroke-width:2.00"/><polygon points="-213.38359835681712,59.76342418998253 -214.3929613983659,-84.81991942774756 -167.598204652405,-13.279288476385602" style="fill:none; stroke:black; stroke-width:2.00"/><polygon points="-213.38359835681712,59.76342418998253 -153.13782957026137,169.639838855495 -129.74045119728095,143.9854909117408" style="fill:none; stroke:black; stroke-width:2.00"/><polygon points="-213.38359835681712,59.76342418998253 -167.598204652405,-13.279288476385602 -129.74045119728095,143.9854909117408" style="fill:none; stroke:black; stroke-width:2.00"/><polygon points="-50.37303449572131,56.18055809774111 -30.62756591405231,-88.8589632100212 -167.598204652405,-13.279288476385602" style="fill:none; stroke:black; stroke-width:2.00"/><polygon points="-50.37303449572131,56.18055809774111 30.627565914052227,165.60079507322138 -129.74045119728095,143.9854909117408" style="fill:none; stroke:black; stroke-width:2.00"/><polygon points="-50.37303449572131,56.18055809774111 -30.62756591405231,-88.8589632100212 91.88269774215689,21.695008334056844" style="fill:none; stroke:black; stroke-width:2.00"/><polygon points="-50.37303449572131,56.18055809774111 30.627565914052227,165.60079507322138 91.88269774215689,21.695008334056844" style="fill:none; stroke:black; stroke-width:2.00"/><polygon points="-50.37303449572131,56.18055809774111 -167.598204652405,-13.279288476385602 -129.74045119728095,143.9854909117408" style="fill:none; stroke:black; stroke-width:2.00"/><polygon points="213.38359835681712,-59.76342418998253 153.13782957026137,-169.639838855495 205.45595810752906,-28.230318455824516" style="fill:none; stroke:black; stroke-width:2.00"/><polygon points="213.38359835681712,-59.76342418998253 214.3929613983659,84.81991942774756 205.45595810752906,-28.230318455824516" style="fill:none; stroke:black; stroke-width:2.00"/></svg>